{
    "asset" : {
        "generator" : "Khronos glTF Blender I/O v1.8.19",
        "version" : "2.0"
    },
    "scene" : 0,
    "scenes" : [
        {
            "name" : "Scene",
            "nodes" : [
                0
            ]
        }
    ],
    "nodes" : [
        {
            "mesh" : 0,
            "name" : "Sphere"
        }
    ],
    "materials" : [
        {
            "doubleSided" : true,
            "name" : "bathBombMaterial",
            "normalTexture" : {
                "index" : 0
            },
            "pbrMetallicRoughness" : {
                "baseColorTexture" : {
                    "index" : 1
                },
                "metallicRoughnessTexture" : {
                    "index" : 2
                }
            }
        }
    ],
    "meshes" : [
        {
            "name" : "Sphere",
            "primitives" : [
                {
                    "attributes" : {
                        "POSITION" : 0,
                        "NORMAL" : 1,
                        "TEXCOORD_0" : 2
                    },
                    "indices" : 3,
                    "material" : 0
                }
            ]
        }
    ],
    "textures" : [
        {
            "sampler" : 0,
            "source" : 0
        },
        {
            "sampler" : 0,
            "source" : 1
        },
        {
            "sampler" : 0,
            "source" : 2
        }
    ],
    "images" : [
        {
            "mimeType" : "image/png",
            "name" : "bath-bomb_bathBombMaterial_Normal",
            "uri" : "bath-bomb_bathBombMaterial_Normal.png"
        },
        {
            "mimeType" : "image/png",
            "name" : "bath-bomb_bathBombMaterial_BaseColor",
            "uri" : "bath-bomb_bathBombMaterial_BaseColor.png"
        },
        {
            "mimeType" : "image/png",
            "name" : "bath-bomb_bathBombMaterial_Metallic-bath-bomb_bathBombMaterial_Roughness",
            "uri" : "bath-bomb_bathBombMaterial_Metallic-bath-bomb_bathBombMaterial_Roughness.png"
        }
    ],
    "accessors" : [
        {
            "bufferView" : 0,
            "componentType" : 5126,
            "count" : 666,
            "max" : [
                1.0284174680709839,
                1,
                1.0284172296524048
            ],
            "min" : [
                -1.0284167528152466,
                -1,
                -1.028416633605957
            ],
            "type" : "VEC3"
        },
        {
            "bufferView" : 1,
            "componentType" : 5126,
            "count" : 666,
            "type" : "VEC3"
        },
        {
            "bufferView" : 2,
            "componentType" : 5126,
            "count" : 666,
            "type" : "VEC2"
        },
        {
            "bufferView" : 3,
            "componentType" : 5123,
            "count" : 3456,
            "type" : "SCALAR"
        }
    ],
    "bufferViews" : [
        {
            "buffer" : 0,
            "byteLength" : 7992,
            "byteOffset" : 0
        },
        {
            "buffer" : 0,
            "byteLength" : 7992,
            "byteOffset" : 7992
        },
        {
            "buffer" : 0,
            "byteLength" : 5328,
            "byteOffset" : 15984
        },
        {
            "buffer" : 0,
            "byteLength" : 6912,
            "byteOffset" : 21312
        }
    ],
    "samplers" : [
        {
            "magFilter" : 9729,
            "minFilter" : 9987
        }
    ],
    "buffers" : [
        {
            "byteLength" : 28224,
            "uri" : "bath-bomb.bin"
        }
    ]
}
